<?xml version="1.0" encoding="iso-8859-1"?>
<!-- Uploaded to: SVG Repo, www.svgrepo.com, Generator: SVG Repo Mixer Tools -->
<svg height="800px" width="800px" version="1.1" id="Layer_1" xmlns="http://www.w3.org/2000/svg" xmlns:xlink="http://www.w3.org/1999/xlink" 
	 viewBox="0 0 512 512" xml:space="preserve">
<path style="fill:#A9A8AE;" d="M487.222,16.46c-11.006-9.349-24.776-15.053-39.17-16.221c-20.812-1.69-40.676,5.648-55.239,20.212
	c-9.089,9.087-9.089,23.824,0,32.912c9.135,9.137,23.98,9.089,33.057-0.144c1.859-1.891,3.941-3.582,6.384-4.611
	c11.604-4.892,23.853-0.81,30.065,9.472c1.086,1.797,1.899,3.759,2.402,5.796c2.614,10.583-1.897,21.07-11.463,26.469
	c-9.047,5.108-20.291,3.021-27.713-4.246c-9.101-8.91-23.704-8.85-32.731,0.178L47.865,431.223l0,0L6.817,472.272
	c-9.089,9.087-9.089,23.824,0,32.912C11.361,509.728,17.316,512,23.272,512s11.913-2.271,16.455-6.817l41.047-41.047l0,0
	l331.326-331.321c9.484,4.518,19.779,6.791,30.081,6.791c17.878,0,35.759-6.805,49.369-20.416
	c13.186-13.188,20.449-30.72,20.449-49.371C511.999,49.22,503.139,29.981,487.222,16.46z"/>
<path style="fill:#A78966;" d="M426.047,217.603l-49.368-49.368l-5.485-5.485l-12.721-12.721l-9.253-9.253l-5.454-5.454
	l-49.369-49.369c-9.087-9.089-23.824-9.089-32.912,0c-9.089,9.087-9.089,23.824,0,32.912l8.288,8.287
	c-7.058,3.378-13.565,7.961-19.26,13.655c-5.769,5.769-10.301,12.31-13.624,19.287l-8.316-8.318c-9.087-9.089-23.822-9.089-32.912,0
	c-9.089,9.087-9.089,23.824,0,32.912l8.288,8.288c-7.056,3.378-13.563,7.961-19.259,13.656c-5.77,5.769-10.302,12.31-13.624,19.285
	l-8.316-8.316c-9.087-9.089-23.825-9.089-32.912,0c-9.089,9.087-9.089,23.824,0,32.912l8.287,8.287
	c-7.055,3.378-13.563,7.961-19.257,13.656c-5.77,5.769-10.304,12.31-13.625,19.288l-8.316-8.316c-9.089-9.089-23.825-9.089-32.912,0
	c-9.089,9.087-9.089,23.824,0,32.912l8.287,8.287c-7.056,3.378-13.563,7.961-19.259,13.656
	c-25.364,25.367-27.08,65.553-5.171,92.939c1.601,2.003,3.319,3.942,5.173,5.796l9.222,9.222l12.719,12.719
	c1.846,1.846,3.786,3.564,5.795,5.176c12.33,9.889,27.533,15.273,43.571,15.273c0,0,0.003,0,0.005,0
	c18.648,0,36.178-7.263,49.365-20.449c5.769-5.769,10.302-12.31,13.625-19.288l8.316,8.316c4.544,4.544,10.501,6.817,16.455,6.817
	c5.956,0,11.913-2.271,16.457-6.817c9.089-9.087,9.089-23.824,0-32.912l-8.287-8.287c7.055-3.378,13.563-7.961,19.257-13.656
	c5.77-5.769,10.304-12.31,13.625-19.288l8.316,8.316c4.544,4.544,10.501,6.816,16.455,6.816c5.956,0,11.913-2.271,16.455-6.816
	c9.089-9.087,9.089-23.824,0-32.912l-8.287-8.287c7.056-3.378,13.563-7.961,19.259-13.655c5.769-5.769,10.301-12.31,13.624-19.287
	l8.315,8.315c4.544,4.546,10.501,6.817,16.457,6.817c5.955,0,11.913-2.273,16.455-6.817c9.089-9.087,9.089-23.825,0-32.912
	l-8.287-8.287c7.056-3.378,13.562-7.961,19.257-13.656c5.769-5.769,10.302-12.31,13.625-19.288l8.316,8.316
	c4.544,4.544,10.501,6.817,16.455,6.817c5.956,0,11.913-2.271,16.457-6.817C435.136,241.426,435.136,226.692,426.047,217.603z"/>
<path style="fill:#AF2E08;" d="M349.252,140.806c-0.011-0.011-0.022-0.02-0.031-0.031l21.974,21.974L349.252,140.806z"/>
<path style="fill:#A4E276;" d="M426.047,217.603l-49.368-49.368l-5.485-5.485l-12.721-12.721l-9.253-9.253l-5.454-5.454
	l-49.369-49.369c-9.087-9.089-23.824-9.089-32.912,0c-9.089,9.087-9.089,23.824,0,32.912l8.288,8.287l18.067,18.069l28.498,28.498
	l9.222,9.222l1.749,1.749l39.469,39.467l18.039,18.039l8.316,8.316c4.544,4.544,10.501,6.817,16.455,6.817
	c5.956,0,11.913-2.271,16.457-6.817C435.136,241.426,435.136,226.692,426.047,217.603z"/>
<path style="fill:#E07188;" d="M360.221,283.429l-8.287-8.287l-18.07-18.069l-28.466-28.466l-12.752-12.752l-1.542-1.542
	l-7.688-7.688l-0.005-0.005l-28.486-28.486l-18.039-18.041l-8.316-8.318c-9.087-9.089-23.822-9.089-32.912,0
	c-9.089,9.087-9.089,23.824,0,32.912l8.288,8.288l18.069,18.069l28.466,28.466l9.253,9.255l5.039,5.041l36.178,36.178l18.039,18.039
	l8.315,8.315c4.544,4.546,10.501,6.817,16.457,6.817c5.955,0,11.913-2.273,16.455-6.817
	C369.31,307.253,369.31,292.516,360.221,283.429z"/>
<path style="fill:#A4E276;" d="M294.396,349.254l-8.287-8.287l-18.069-18.069l-28.483-28.483l-12.735-12.736l-9.222-9.222
	l-28.498-28.498l-18.039-18.041l-8.316-8.316c-9.087-9.089-23.825-9.089-32.912,0c-9.089,9.087-9.089,23.824,0,32.912l8.287,8.287
	l18.069,18.069l28.469,28.469l9.252,9.252l12.75,12.75l28.467,28.467l18.039,18.039l8.316,8.316
	c4.544,4.544,10.501,6.816,16.455,6.816c5.956,0,11.913-2.271,16.455-6.816C303.487,373.077,303.487,358.341,294.396,349.254z"/>
<path style="fill:#E07188;" d="M228.572,415.078l-8.287-8.287l-18.069-18.069l-28.455-28.453l-12.763-12.763l-9.222-9.222
	l-28.498-28.498l-18.039-18.039l-8.316-8.316c-9.089-9.089-23.825-9.089-32.912,0c-9.089,9.087-9.089,23.824,0,32.912l8.287,8.287
	l18.069,18.07l28.483,28.484l7.329,7.328l1.908,1.908l12.719,12.719l0.014,0.014l28.484,28.484l18.039,18.039l8.316,8.316
	c4.544,4.544,10.501,6.817,16.455,6.817c5.956,0,11.913-2.271,16.457-6.817C237.661,438.903,237.661,424.167,228.572,415.078z"/>
<g>
	<path style="fill:#806749;" d="M283.413,206.62l0.005,0.005l7.688,7.688l1.542,1.542l32.914-32.914l-9.222-9.222l-28.498-28.497
		l-18.067-18.069c-7.058,3.378-13.565,7.961-19.26,13.655c-5.769,5.769-10.301,12.31-13.624,19.287l18.039,18.041L283.413,206.62z"
		/>
	<path style="fill:#806749;" d="M217.601,272.457l9.222,9.222l32.912-32.912l-9.253-9.255l-28.466-28.466l-18.07-18.069
		c-7.056,3.378-13.563,7.961-19.259,13.656c-5.77,5.769-10.302,12.31-13.624,19.285l18.039,18.041L217.601,272.457z"/>
	<path style="fill:#806749;" d="M151.775,338.283l9.222,9.222l32.914-32.914l-9.252-9.252l-28.469-28.469l-18.069-18.069
		c-7.055,3.378-13.563,7.961-19.257,13.656c-5.77,5.769-10.304,12.31-13.625,19.288l18.039,18.039L151.775,338.283z"/>
	<path style="fill:#806749;" d="M126.176,378.509l-7.329-7.328l-28.483-28.484l-18.069-18.071
		c-7.056,3.378-13.563,7.961-19.259,13.656c-25.364,25.367-27.08,65.553-5.171,92.939c1.601,2.003,3.319,3.942,5.173,5.796
		l9.222,9.222l65.825-65.825L126.176,378.509z"/>
</g>
<g>
	<path style="fill:#64C37D;" d="M316.339,173.72l9.222,9.222l32.912-32.912l-9.253-9.253l-5.454-5.454l-49.369-49.369
		c-9.087-9.089-23.824-9.089-32.912,0c-9.089,9.087-9.089,23.824,0,32.912l8.288,8.287l18.067,18.069L316.339,173.72z"/>
	<path style="fill:#64C37D;" d="M184.659,305.339l9.252,9.252l32.912-32.912l-9.222-9.222l-28.498-28.498l-18.039-18.041
		l-8.316-8.316c-9.087-9.089-23.825-9.089-32.912,0c-9.089,9.087-9.089,23.824,0,32.912l8.287,8.287l18.069,18.069L184.659,305.339z
		"/>
</g>
<g>
	<path style="fill:#FF3F62;" d="M250.482,239.513l9.253,9.255l32.912-32.912l-1.542-1.542l-7.688-7.688l-0.005-0.005l-28.486-28.486
		l-18.039-18.041l-8.316-8.318c-9.087-9.089-23.822-9.089-32.912,0c-9.089,9.087-9.089,23.824,0,32.912l8.288,8.288l18.069,18.069
		L250.482,239.513z"/>
	<path style="fill:#FF3F62;" d="M118.849,371.181l7.329,7.328l1.908,1.908l32.912-32.912l-9.222-9.222l-28.498-28.498
		l-18.039-18.039l-8.316-8.316c-9.089-9.089-23.825-9.089-32.912,0c-9.089,9.087-9.089,23.823,0,32.912l8.287,8.287l18.069,18.071
		L118.849,371.181z"/>
</g>
</svg>